<svg id="objects" xmlns="http://www.w3.org/2000/svg" xmlns:xlink="http://www.w3.org/1999/xlink" viewBox="0 0 250.59 237.4"><defs><style>.cls-1,.cls-12,.cls-13{fill:none;}.cls-2{fill:#4db6ac;}.cls-3{clip-path:url(#clip-path);}.cls-4{fill:#f9d691;}.cls-5{fill:#ffe2a1;}.cls-6{fill:#545454;}.cls-7{fill:#f4d038;}.cls-8{fill:#455a64;}.cls-9{fill:#e53935;}.cls-10{fill:#fff;}.cls-11{fill:#37474f;}.cls-12,.cls-13{stroke:#37474f;stroke-miterlimit:10;}.cls-12{stroke-linecap:round;stroke-width:2.83px;}.cls-13{stroke-width:2.86px;}</style><clipPath id="clip-path"><circle class="cls-1" cx="125.3" cy="118.7" r="108.18"/></clipPath></defs><circle class="cls-2" cx="125.3" cy="118.7" r="108.18"/><g class="cls-3"><path class="cls-4" d="M162.65,179.46c-8.61-1.5-12-18.3-14.26-29.5H102.2c-2.24,11.2-5.65,28-14.26,29.5-34.45,6-68.69,4-68.67,36.9v35.71H231.32V216.36C231.34,183.42,197.1,185.48,162.65,179.46Z"/><path class="cls-5" d="M79.2,99.39c-.56,7.72-.67,14.14,2.27,14.35s5.76-5.86,6.32-13.57-3.39-14.29-6.32-14.5S79.76,91.68,79.2,99.39Z"/><path class="cls-5" d="M171.39,99.39c.56,7.72.67,14.14-2.27,14.35s-5.76-5.86-6.32-13.57,3.39-14.29,6.32-14.5S170.83,91.68,171.39,99.39Z"/><path class="cls-5" d="M125.3,43.9c-34.12.27-47.61,28-39.14,75.66,2.79,15.7,23,44.07,39.14,44.65,16.18-.58,36.34-29,39.13-44.65C172.9,71.88,159.41,44.17,125.3,43.9Z"/><path class="cls-6" d="M125.29,69.66v0h0"/><path class="cls-6" d="M125.29,78.53v0h0"/><path class="cls-7" d="M171.52,70A49.84,49.84,0,0,0,168,59.08c-.91-17.49-11.1-23.16-11.1-23.16s2.33,4,.78,4.55c-2.12.71-7.48-6.36-7.48-6.36s-1.46,4.82-3.52,2.15c-3.43-4.43-9.89-5.67-9.89-5.67s5.4,4.7,2.93,5.47c-9.46,2.95-20.29-8.42-20.29-8.42s-.6,5.66-5.33,7.64c-3.9,1.63-6.09,2.42-9,1.83-2.7-.55,5.68-7.28,5.68-7.28s-8.76,2.09-15.08,7.89c-3.84,3.53-5.63,6.89-7.09,8.81-1.76,2.31.71-5.78.71-5.78S81.44,46.53,82.36,59A31,31,0,0,0,78.7,70.73c-1.55,16.92,3,14.87,4,29.44a.64.64,0,0,0,1.28,0c.79-11.48,2.58-27.51,5.38-33.16a50.62,50.62,0,0,1,9.15-.83c11,0,20.57,3.44,25.59,8.53,5.94-5.39,15.28-8.53,25.59-8.53a49.55,49.55,0,0,1,11.38,1.3c2.67,5.58,4.39,21.41,5.15,32.74a.64.64,0,0,0,1.28,0C168.58,85.65,174.13,87.41,171.52,70Z"/><path class="cls-8" d="M162.65,179.46c-2.85-.5-5.13-2.67-7-5.76l-30.38,22L94.85,173.82c-1.84,3-4.1,5.15-6.91,5.64-34.45,6-68.69,4-68.67,36.9v35.71H231.32V216.36C231.34,183.42,197.1,185.48,162.65,179.46Z"/><polyline class="cls-9" points="107.86 196.79 125.3 219.68 142.74 196.79"/><path class="cls-10" d="M99.2,214.27l26.1-15.76,26,15.76,10.12-35.15c-2.29-.83-4.18-2.79-5.76-5.42l-30.38,22L94.85,173.82c-1.58,2.6-3.47,4.52-5.75,5.33Z"/><polygon class="cls-9" points="134.45 252.07 116.16 252.07 123 208.23 127.6 208.23 134.45 252.07"/></g><path class="cls-11" d="M120.93,99.69l-.07.89c0,.3-.11.75-.19,1.23s-.23,1-.4,1.55a17,17,0,0,1-1.76,3.86,15.6,15.6,0,0,1-3.62,4.08,15.13,15.13,0,0,1-5.75,2.79,11.62,11.62,0,0,1-1.68.34,10.07,10.07,0,0,1-1.74.18,22.31,22.31,0,0,1-3.56,0A14.38,14.38,0,0,1,95,112.1a12.3,12.3,0,0,1-4.57-6.6l-.15-.49,0-.12,0-.15-.05-.22c-.07-.31-.15-.58-.21-1a18.07,18.07,0,0,1-.26-2,10.78,10.78,0,0,1,.52-4.24,7.8,7.8,0,0,1,2.64-3.67,10.82,10.82,0,0,1,3.89-1.75c.65-.11,1.31-.25,1.94-.3s1.28-.1,1.85-.1c1.11,0,2.2,0,3.3,0a56.05,56.05,0,0,1,6.14.38A27.45,27.45,0,0,1,115.2,93a10.44,10.44,0,0,1,4,2.35c.25.27.48.54.68.8s.33.57.47.84a7.42,7.42,0,0,1,.46,1.42c.07.78.08,1.19.08,1.19Zm-3.15-.07s0-.2-.08-.58a2.65,2.65,0,0,0-.8-1.25,7.07,7.07,0,0,0-2.79-1.27,29,29,0,0,0-4.63-.74c-1.77-.16-3.73-.26-5.81-.35-1-.05-2.11-.08-3.23-.1-.55,0-1,0-1.53,0s-1,.1-1.47.15a7.58,7.58,0,0,0-2.58,1,4.4,4.4,0,0,0-1.67,2,7.66,7.66,0,0,0-.57,3,14.7,14.7,0,0,0,.09,1.63,8.16,8.16,0,0,0,.13.88l0,.23s0,.11,0,.07l0,.1.1.41a9.68,9.68,0,0,0,3.28,5.54,11.49,11.49,0,0,0,6.06,2.31c.54.07,1.09.1,1.64.12a14.46,14.46,0,0,0,1.62,0,8.76,8.76,0,0,0,1.55-.16,8.12,8.12,0,0,0,1.48-.32,11.74,11.74,0,0,0,4.8-2.63,12.28,12.28,0,0,0,2.78-3.68,15.76,15.76,0,0,0,1.23-3.33c.11-.47.18-.91.23-1.27s.07-.61.08-.88c0-.58,0-.89,0-.89Z"/><path class="cls-11" d="M131.52,99.55s0,.31,0,.89c0,.27.06.53.08.88s.13.8.24,1.27a15.76,15.76,0,0,0,1.23,3.33,12.28,12.28,0,0,0,2.78,3.68,11.74,11.74,0,0,0,4.8,2.63,8.12,8.12,0,0,0,1.48.32,8.76,8.76,0,0,0,1.55.16,14.46,14.46,0,0,0,1.62,0c.54,0,1.09,0,1.64-.12a11.43,11.43,0,0,0,6.05-2.31,9.64,9.64,0,0,0,3.29-5.54l.1-.41,0-.1s0-.05,0-.07l0-.23c.05-.3.11-.63.13-.88a14.7,14.7,0,0,0,.09-1.63,7.66,7.66,0,0,0-.57-3,4.4,4.4,0,0,0-1.67-2,7.58,7.58,0,0,0-2.58-1c-.49,0-1-.14-1.47-.15s-1,0-1.53,0c-1.12,0-2.21,0-3.24.1-2.07.09-4,.19-5.8.35a28.81,28.81,0,0,0-4.63.74,7,7,0,0,0-2.79,1.27,2.57,2.57,0,0,0-.8,1.25,4.68,4.68,0,0,1-.09.58Zm-3.14.07s0-.41.08-1.19a6.77,6.77,0,0,1,.46-1.42c.14-.27.29-.55.47-.84s.43-.53.67-.8a10.52,10.52,0,0,1,4-2.35,27.8,27.8,0,0,1,5.29-1.18,56.24,56.24,0,0,1,6.15-.38c1.09,0,2.19,0,3.3,0,.57,0,1.23.06,1.85.1s1.29.19,1.94.3a10.7,10.7,0,0,1,3.88,1.75,7.89,7.89,0,0,1,2.65,3.67,11,11,0,0,1,.52,4.24,18.07,18.07,0,0,1-.26,2c-.06.37-.14.64-.21,1l-.05.22,0,.15,0,.12-.16.49a12.25,12.25,0,0,1-4.57,6.6,14.34,14.34,0,0,1-7.21,2.49,22.3,22.3,0,0,1-3.56,0,10.05,10.05,0,0,1-1.73-.18,11.62,11.62,0,0,1-1.68-.34,15.13,15.13,0,0,1-5.75-2.79,15.42,15.42,0,0,1-3.62-4.08,16.57,16.57,0,0,1-1.76-3.86c-.18-.57-.3-1.08-.4-1.55s-.16-.93-.19-1.23c0-.58-.07-.89-.07-.89Z"/><line class="cls-12" x1="89.82" y1="92.42" x2="160.77" y2="92.42"/><path class="cls-13" d="M119.74,99.74s5.37-2.51,10,0"/></svg>