<svg id="objects" xmlns="http://www.w3.org/2000/svg" xmlns:xlink="http://www.w3.org/1999/xlink" viewBox="0 0 250.59 237.4"><defs><style>.cls-1{fill:none;}.cls-2{fill:#ff7043;}.cls-3{clip-path:url(#clip-path);}.cls-4{fill:#f9d691;}.cls-5{fill:#ffe2a1;}.cls-6{fill:#545454;}.cls-7{fill:#683e21;}.cls-8{fill:#455a64;}.cls-9{fill:#e53935;}.cls-10{fill:#fff;}</style><clipPath id="clip-path"><circle class="cls-1" cx="127.33" cy="123.09" r="108.18" transform="translate(-49.74 126.09) rotate(-45)"/></clipPath></defs><circle class="cls-2" cx="127.33" cy="123.09" r="108.18" transform="translate(-49.74 126.09) rotate(-45)"/><g class="cls-3"><path class="cls-4" d="M164.68,183.85c-8.61-1.5-12-18.3-14.26-29.5H104.24c-2.24,11.2-5.65,28-14.26,29.5-34.46,6-68.7,4-68.68,36.91v35.7H233.35v-35.7C233.38,187.81,199.14,189.87,164.68,183.85Z"/><path class="cls-5" d="M83.36,111.36c-.54,7.36-.64,13.49,2.16,13.69s5.5-5.59,6-13-3.24-13.62-6-13.83S83.89,104,83.36,111.36Z"/><path class="cls-5" d="M171.3,111.36c.53,7.36.63,13.49-2.17,13.69s-5.5-5.59-6-13,3.23-13.62,6-13.83S170.77,104,171.3,111.36Z"/><path class="cls-5" d="M127.33,55.23C94.79,55.49,81.91,81.92,90,127.41c2.66,15,21.89,42,37.33,42.58,15.44-.54,34.67-27.61,37.33-42.58C172.74,81.92,159.87,55.49,127.33,55.23Z"/><path class="cls-6" d="M127.32,79.8v0"/><path class="cls-6" d="M127.32,88.26v0h0"/><path class="cls-7" d="M157.36,47.05C145.9,32.51,121.19,38.16,112,44.67c-18.08,12.84-19.25,4.39-27.69,8.78-6,3.1-9.62,13.75-9.62,21.52,0,11.37,5.61,28.7,12.28,37.05-.73-15,5.31-14.67,3.49-22.56C88,78.73,97.34,75.11,106.4,75.64s14.64,4.57,29,.34c7.1-2.08,18.83-11.17,18.83-11.17s8,15.54,8.88,23.45c1.48,13.86,6.22,7.46,5.58,23.76,3.77-6.77,10.7-23.59,9.6-34.91-1.78-18.3-16.78-20.29-16.78-20.29S159.37,49.59,157.36,47.05Z"/><path class="cls-8" d="M164.68,183.85c-2.85-.5-5.12-2.67-7-5.76l-30.38,22L96.88,178.21c-1.84,3-4.09,5.15-6.9,5.64-34.46,6-68.7,4-68.68,36.91v35.7H233.35v-35.7C233.38,187.81,199.14,189.87,164.68,183.85Z"/><polyline class="cls-9" points="109.89 201.18 127.33 224.07 144.77 201.18"/><path class="cls-10" d="M101.24,218.66l26.09-15.76,26,15.76,10.11-35.15c-2.29-.83-4.18-2.79-5.76-5.42l-30.38,22L96.88,178.21c-1.58,2.6-3.47,4.52-5.75,5.33Z"/><polygon class="cls-9" points="136.48 256.46 118.19 256.46 125.04 212.62 129.63 212.62 136.48 256.46"/></g></svg>