<svg id="objects" xmlns="http://www.w3.org/2000/svg" xmlns:xlink="http://www.w3.org/1999/xlink" viewBox="0 0 250.59 237.4"><defs><style>.cls-1{fill:none;}.cls-2{fill:#ce93d8;}.cls-3{clip-path:url(#clip-path);}.cls-4{fill:#f9d691;}.cls-5{fill:#ffe2a1;}.cls-6{fill:#db7d00;}.cls-7{fill:#455a64;}.cls-8{fill:#fff;}</style><clipPath id="clip-path"><circle class="cls-1" cx="125.3" cy="118.7" r="108.18"/></clipPath></defs><circle class="cls-2" cx="125.3" cy="118.7" r="108.18"/><g class="cls-3"><path class="cls-4" d="M94.46,175.89c10.43-1.83,14.75-17.26,16.53-30.55-13.16-9.27-25-29.24-25-48.51C86,66,103.57,51.92,125.3,51.92s39.34,14,39.34,44.91c0,17.56-11.83,38.46-25.08,48.25,1.76,13.35,6.07,29,16.57,30.81,34.88,6.09,50,3.51,50,36.31v28.07H44.46V212.2C44.46,179.4,59.58,182,94.46,175.89Z"/><path class="cls-5" d="M111,145.34c-13.16-9.27-25-29.24-25-48.51C86,66,103.57,51.92,125.3,51.92s39.34,14,39.34,44.91c0,17.56-11.83,38.46-25.08,48.25C129.53,152.35,120.69,152.27,111,145.34Z"/><path class="cls-1" d="M94.46,175.89c10.43-1.83,14.75-17.26,16.53-30.55-13.16-9.27-25-29.24-25-48.51C86,66,103.57,51.92,125.3,51.92s39.34,14,39.34,44.91c0,17.56-11.83,38.46-25.08,48.25,1.76,13.35,6.07,29,16.57,30.81,34.88,6.09,50,3.51,50,36.31H44.46C44.46,179.4,59.58,182,94.46,175.89Z"/><path class="cls-6" d="M118.88,37.49c4.91.54,12.42,4.45,12.42,4.45s13-4.7,24.11-.25c15.46,6.18,26.84,18.22,26.7,59.18-.14,40.39-8.37,60.85-10.68,77.24-4.59-.71-9.66-1.47-15.26-2.44C146,173.88,141.62,159,139.78,145.92c0,0-.13-.82-.15-1,0,0,1.11-.82,1.86-1.45l.81-.72h0c.51-.44,1-.89,1.5-1.36h0l.91-.9h0l1.29-1.33h0c.32-.34.64-.69.95-1.05s.79-.89,1.18-1.35h0l1-1.16h0l1.08-1.4h0l.94-1.25h0c.36-.48.7-1,1-1.48h0c.76-1.09,1.49-2.2,2.19-3.34.1-.16.21-.32.3-.48h0l.62-1c.34-.58.67-1.17,1-1.76.24-.44.48-.88.71-1.33.35-.67.69-1.34,1-2l.49-1c.38-.82.75-1.65,1.1-2.48l.39-1c.35-.87.69-1.75,1-2.63.09-.25.17-.5.26-.76.3-.87.58-1.74.83-2.61.05-.16.1-.32.14-.49.28-1,.51-1.9.73-2.85.05-.21.1-.41.14-.61.21-1,.39-1.93.55-2.89l.09-.6c.14-1,.26-1.95.34-2.91,0-.15,0-.3,0-.45.08-1,.13-2,.13-3a70.62,70.62,0,0,0-.7-10.06c-1.78-.23-5.09-.64-9.39-1.08a77.53,77.53,0,0,0-4.54-17.28,91.67,91.67,0,0,1,.84,16.93c-1.5-.13-3.07-.27-4.72-.39a65.79,65.79,0,0,0-4.33-19.2A73,73,0,0,1,141.64,85c-5.37-.34-11.24-.58-17.18-.58-13,0-31.26,1.87-37.94,2.6,0,.18,0,.35-.07.53-.08.56-.16,1.12-.22,1.7l-.06.63c-.06.64-.13,1.28-.17,1.93h0l0,.41h0c-.1,1.6-.17,3.24-.17,4.94,0,19.2,12.19,38.75,25.3,48-.09.71-.33,2.32-.65,4.18-2.1,12.14-6.52,24.69-15.85,26.32-3.85.67-7.43,1.23-10.8,1.75,6.12-22.81-3.72-39.46-7.72-60.23C66,64.94,86.1,33.85,118.88,37.49Z"/><path class="cls-7" d="M157.94,176.19c-14.42,18-45.81,23.58-65.29,0-33.58,5.7-48.19,3.79-48.19,36v28.07H206.14V212.2C206.14,180,191.52,181.89,157.94,176.19Z"/><path class="cls-8" d="M144.45,202.54l-19.45-9-19.38,9L91.78,175.71c2.1-.77,3.84-2.57,5.29-5L125,191l28-20.15c1.45,2.39,3.19,4.16,5.29,4.9Z"/></g></svg>