<svg id="objects" xmlns="http://www.w3.org/2000/svg" xmlns:xlink="http://www.w3.org/1999/xlink" viewBox="0 0 250.59 237.4"><defs><style>.cls-1{fill:none;}.cls-2{fill:#4dd0e1;}.cls-3{clip-path:url(#clip-path);}.cls-4{fill:#f9d691;}.cls-5{fill:#ffe2a1;}.cls-6{fill:#545454;}.cls-7{fill:#455a64;}.cls-8{fill:#e53935;}.cls-9{fill:#fff;}.cls-10{fill:#9b652f;}.cls-11{fill:#37474f;}.cls-12{clip-path:url(#clip-path-2);}</style><clipPath id="clip-path"><circle class="cls-1" cx="127.33" cy="118.7" r="108.18" transform="translate(-46.64 124.8) rotate(-45)"/></clipPath><clipPath id="clip-path-2"><circle class="cls-1" cx="127.33" cy="-132.74" r="108.18" transform="translate(131.16 51.16) rotate(-45)"/></clipPath></defs><circle class="cls-2" cx="127.33" cy="118.7" r="108.18" transform="translate(-46.64 124.8) rotate(-45)"/><g class="cls-3"><path class="cls-4" d="M164.68,179.46c-8.61-1.5-12-18.3-14.26-29.5H104.24c-2.24,11.2-5.65,28-14.26,29.5-34.46,6-68.7,4-68.68,36.9v35.71H233.35V216.36C233.38,183.42,199.14,185.48,164.68,179.46Z"/><path class="cls-5" d="M83.36,107c-.54,7.36-.64,13.49,2.16,13.69s5.5-5.6,6-13-3.24-13.62-6-13.83S83.89,99.62,83.36,107Z"/><path class="cls-5" d="M171.3,107c.53,7.36.63,13.49-2.17,13.69s-5.5-5.6-6-13,3.23-13.62,6-13.83S170.77,99.62,171.3,107Z"/><path class="cls-5" d="M127.33,50.84C94.79,51.1,81.91,77.53,90,123c2.66,15,21.89,42.05,37.33,42.59C142.77,165.06,162,138,164.66,123,172.74,77.53,159.87,51.1,127.33,50.84Z"/><path class="cls-6" d="M127.32,75.41v0"/><path class="cls-6" d="M127.32,83.87v0h0"/><path class="cls-7" d="M164.68,179.46c-2.85-.5-5.12-2.67-7-5.76l-30.38,22L96.88,173.82c-1.84,3-4.09,5.15-6.9,5.64-34.46,6-68.7,4-68.68,36.9v35.71H233.35V216.36C233.38,183.42,199.14,185.48,164.68,179.46Z"/><polyline class="cls-8" points="109.89 196.79 127.33 219.68 144.77 196.79"/><path class="cls-9" d="M101.24,214.27l26.09-15.76,26,15.76,10.11-35.15c-2.29-.83-4.18-2.79-5.76-5.42l-30.38,22L96.88,173.82c-1.58,2.6-3.47,4.52-5.75,5.33Z"/><polygon class="cls-8" points="136.48 252.07 118.19 252.07 125.04 208.23 129.63 208.23 136.48 252.07"/><path class="cls-10" d="M158.82,45.21c-8-9.1-27.18-10.72-36.18-10.62-12.08.15-25.48,7-32.71,13.09-5.2,4.4-10,15.17-10,23,0,11.52,3.56,29.7,7.37,36.55,1.15-12.32,1.68-17.59,2-22.5.23-4.06,2.38-12.55,11.56-12s19.42,2.63,34-1.65C142.07,69,154,59.79,154,59.79s8.14,15.75,9,23.77c1.5,14,6.3,7.56,5.65,24.07,3.82-6.86,7-23.4,5.87-34.87-1.8-18.55-13.14-21.07-13.14-21.07S161,47.68,158.82,45.21Z"/><path class="cls-11" d="M105.92,115.25c-9.12,0-13.21-5.5-13.21-11s4.09-11,13.21-11c8.54,0,17.37,3.72,17.37,9.93C123.29,109.72,113.74,115.25,105.92,115.25Zm0-19c-6.25,0-10.29,3.16-10.29,8.05s4,8,10.29,8c6.89,0,14.45-4.76,14.45-9.09C120.37,99.12,112.76,96.24,105.92,96.24Z"/><path class="cls-11" d="M148.73,115.25c-7.81,0-17.36-5.53-17.36-12,0-6.21,8.83-9.93,17.36-9.93,9.13,0,13.22,5.51,13.22,11S157.86,115.25,148.73,115.25Zm0-19c-6.83,0-14.44,2.88-14.44,7,0,4.33,7.56,9.09,14.44,9.09,6.26,0,10.3-3.16,10.3-8S155,96.24,148.73,96.24Z"/><path class="cls-11" d="M131.9,104.36c-4.53-3.72-9-.16-9.14,0l-1.87-2.24a10,10,0,0,1,12.86,0Z"/><polyline class="cls-11" points="148.51 93.32 166.68 93.32 164.09 97.66 156.63 97.66 148.12 93.33"/><polyline class="cls-11" points="106.14 93.32 87.98 93.32 90.57 97.66 98.03 97.66 106.54 93.33"/></g><g class="cls-12"><path class="cls-4" d="M164.68-72c-8.61-1.5-12-18.3-14.26-29.5H104.24C102-90.28,98.59-73.48,90-72c-34.46,6-68.7,4-68.68,36.91V.63H233.35v-35.7C233.38-68,199.14-66,164.68-72Z"/><path class="cls-7" d="M164.68-72c-2.85-.5-5.12-2.67-7-5.76l-30.38,22L96.88-77.62C95-74.6,92.79-72.47,90-72c-34.46,6-68.7,4-68.68,36.91V.63H233.35v-35.7C233.38-68,199.14-66,164.68-72Z"/><polygon class="cls-8" points="136.48 0.63 118.19 0.63 125.04 -43.2 129.63 -43.2 136.48 0.63"/></g></svg>