<svg id="objects" xmlns="http://www.w3.org/2000/svg" xmlns:xlink="http://www.w3.org/1999/xlink" viewBox="0 0 250.59 237.4"><defs><style>.cls-1{fill:none;}.cls-2{fill:#f48fb1;}.cls-3{clip-path:url(#clip-path);}.cls-4{fill:#f9d691;}.cls-5{fill:#ffe2a1;}.cls-6{fill:#9b652f;}.cls-7{fill:#455a64;}.cls-8{fill:#fff;}.cls-9{fill:#37474f;}</style><clipPath id="clip-path"><circle class="cls-1" cx="125.3" cy="118.7" r="108.18" transform="translate(-47.23 123.36) rotate(-45)"/></clipPath></defs><circle class="cls-2" cx="125.3" cy="118.7" r="108.18" transform="translate(-47.23 123.36) rotate(-45)"/><g class="cls-3"><path class="cls-4" d="M156.13,175.89c-10.43-1.83-14.75-17.26-16.53-30.55,13.16-9.27,25-29.24,25-48.51C164.64,66,147,51.92,125.3,51.92S86,66,86,96.83c0,17.56,11.83,38.46,25.08,48.25-1.76,13.35-6.07,29-16.57,30.81-34.88,6.09-50,3.51-50,36.31v28.07H206.14V212.2C206.14,179.4,191,182,156.13,175.89Z"/><path class="cls-5" d="M139.6,145.34c13.16-9.27,25-29.24,25-48.51C164.64,66,147,51.92,125.3,51.92S86,66,86,96.83c0,17.56,11.83,38.46,25.08,48.25C121.06,152.35,129.9,152.27,139.6,145.34Z"/><path class="cls-1" d="M156.13,175.89c-10.43-1.83-14.75-17.26-16.53-30.55,13.16-9.27,25-29.24,25-48.51C164.64,66,147,51.92,125.3,51.92S86,66,86,96.83c0,17.56,11.83,38.46,25.08,48.25-1.76,13.35-6.07,29-16.57,30.81-34.88,6.09-50,3.51-50,36.31H206.14C206.14,179.4,191,182,156.13,175.89Z"/><path class="cls-6" d="M130,36.36c-4.71.34-10.72,4-10.72,4s-8.52-2.49-16.42-.52C92.51,42.41,69.52,52.09,74,96.33c2.47,24.3,35.08,50.48,31.08,71.38,3.64-5.89,5.59-14.47,6.62-22.24-.74-.55-1.47-1.14-2.2-1.76-.25-.2-.49-.43-.74-.65-.47-.42-1-.85-1.42-1.3l-.87-.86c-.41-.41-.83-.83-1.23-1.27s-.62-.66-.92-1-.75-.85-1.12-1.29-.62-.73-.92-1.11-.7-.88-1-1.33-.61-.79-.91-1.2-.66-.94-1-1.41-.58-.82-.86-1.24c-.52-.79-1-1.6-1.52-2.42-5.48-9-9.13-19.58-9.13-29.1A62.22,62.22,0,0,1,89.41,85.2c1.15-.37,2.67-.84,4.55-1.36a53.65,53.65,0,0,1,3.85-13.17,101.28,101.28,0,0,0-1.17,12.45c1.46-.38,3-.76,4.75-1.14a54.94,54.94,0,0,1,4.37-17.45,95.52,95.52,0,0,0-1.15,16.77,111.85,111.85,0,0,1,21.23-2.25c11.83,0,28.31,4.07,35.32,6a57.1,57.1,0,0,1,1.43,9.39c0,.13,0,.26,0,.39,0,.7.09,1.39.11,2.11s.05,1.73.05,2.62c0,18.34-11.31,37.36-23.84,46.19.06.47.14.95.21,1.42.32,2.1.76,4.47,1.28,6.93,1.26,5.6,3.13,11,5.88,14.84-1.42-20.55.55-16.93,22.26-51.14C192.18,80.55,169.63,33.45,130,36.36Z"/><path class="cls-7" d="M92.65,176.19c14.42,18,45.81,23.58,65.29,0,33.58,5.7,48.2,3.79,48.2,36v28.07H44.46V212.2C44.46,180,59.07,181.89,92.65,176.19Z"/><path class="cls-8" d="M106.14,202.54l19.45-9,19.38,9,13.84-26.83c-2.1-.77-3.84-2.57-5.29-5L125.59,191l-28-20.15c-1.45,2.39-3.19,4.16-5.28,4.9Z"/></g><path class="cls-9" d="M109.66,113.11h0a20.89,20.89,0,0,1-2.9-.22,21.76,21.76,0,0,1-10.91-5.21c-3.24-2.9-4.85-6.26-4.41-9.22.7-4.6,6.26-7.57,14.18-7.57a29.22,29.22,0,0,1,4.4.33c9,1.35,12.21,7.4,11.4,12.79S116,113.11,109.66,113.11Zm-4-19.14c-5,0-10.62,1.55-11.13,5-.28,1.88,1,4.3,3.42,6.46a18.77,18.77,0,0,0,9.3,4.46,16.22,16.22,0,0,0,2.45.19h0c4.85,0,8.1-2.42,8.71-6.48.72-4.73-2.74-8.37-8.81-9.28A25.74,25.74,0,0,0,105.62,94Z"/><path class="cls-9" d="M140.93,113.11c-6.31,0-10.93-3.57-11.76-9.1s2.4-11.44,11.4-12.79a29.22,29.22,0,0,1,4.4-.33c7.92,0,13.49,3,14.18,7.57.44,3-1.17,6.32-4.41,9.22a21.77,21.77,0,0,1-10.9,5.21A21.15,21.15,0,0,1,140.93,113.11ZM145,94a25.84,25.84,0,0,0-3.94.3c-6.06.91-9.52,4.55-8.81,9.29.61,4,3.86,6.47,8.71,6.47a16.22,16.22,0,0,0,2.45-.19,18.77,18.77,0,0,0,9.3-4.46c2.43-2.16,3.7-4.58,3.42-6.46C155.59,95.52,150,94,145,94Z"/><path class="cls-9" d="M129.92,104.2c-4.42-3.63-8.75-.16-8.93,0l-2-2.37a10,10,0,0,1,12.86,0Z"/><polygon class="cls-9" points="157.47 95.88 162.07 95.88 162.07 97.49 158.02 101.55 157.47 95.88"/><polygon class="cls-9" points="93.12 95.88 88.52 95.88 88.52 97.49 92.57 101.55 93.12 95.88"/></svg>