<svg id="objects" xmlns="http://www.w3.org/2000/svg" xmlns:xlink="http://www.w3.org/1999/xlink" viewBox="0 0 250.59 237.4"><defs><style>.cls-1{fill:none;}.cls-2{fill:#fdd835;}.cls-3{clip-path:url(#clip-path);}.cls-4{fill:#f9d691;}.cls-5{fill:#ffe2a1;}.cls-6{fill:#231f20;}.cls-7{fill:#455a64;}.cls-8{fill:#fff;}</style><clipPath id="clip-path"><circle class="cls-1" cx="125.3" cy="118.7" r="108.18" transform="translate(-47.23 123.36) rotate(-45)"/></clipPath></defs><circle class="cls-2" cx="125.3" cy="118.7" r="108.18" transform="translate(-47.23 123.36) rotate(-45)"/><g class="cls-3"><path class="cls-4" d="M94.46,175.89c10.43-1.83,14.75-17.26,16.53-30.55-13.16-9.27-25-29.24-25-48.51C86,66,103.57,51.92,125.3,51.92s39.34,14,39.34,44.91c0,17.56-11.83,38.46-25.08,48.25,1.76,13.35,6.07,29,16.57,30.81,34.88,6.09,50,3.51,50,36.31v28.07H44.46V212.2C44.46,179.4,59.58,182,94.46,175.89Z"/><path class="cls-5" d="M111,145.34c-13.16-9.27-25-29.24-25-48.51C86,66,103.57,51.92,125.3,51.92s39.34,14,39.34,44.91c0,17.56-11.83,38.46-25.08,48.25C129.53,152.35,120.69,152.27,111,145.34Z"/><path class="cls-1" d="M94.46,175.89c10.43-1.83,14.75-17.26,16.53-30.55-13.16-9.27-25-29.24-25-48.51C86,66,103.57,51.92,125.3,51.92s39.34,14,39.34,44.91c0,17.56-11.83,38.46-25.08,48.25,1.76,13.35,6.07,29,16.57,30.81,34.88,6.09,50,3.51,50,36.31H44.46C44.46,179.4,59.58,182,94.46,175.89Z"/><path class="cls-6" d="M120.26,31.06a73.46,73.46,0,0,1,11.18,4.14s8.89-2.6,17.14-.54c10.82,2.71,37.5,10.16,37.5,56.57,0,34.89-7.81,52.12-14.54,71.55-11.12.83-22.14-.35-27.93,0a77.31,77.31,0,0,1-4.26-17.87h0c.75-.56,1.5-1.16,2.24-1.79l.81-.72h0c.5-.44,1-.88,1.49-1.35h0c.31-.29.61-.6.91-.9h0c.43-.43.86-.87,1.29-1.33h0c.32-.34.63-.69,1-1s.78-.89,1.17-1.35h0c.33-.38.65-.76,1-1.16h0c.37-.45.73-.92,1.09-1.39h0c.32-.41.64-.82.95-1.25h0c.35-.48.69-1,1-1.47h0c.75-1.09,1.48-2.2,2.18-3.33l.31-.48h0c.21-.34.41-.69.61-1,.34-.58.67-1.16,1-1.75s.48-.88.71-1.33c.35-.66.68-1.33,1-2,.17-.34.33-.68.49-1,.38-.82.74-1.64,1.09-2.48.14-.32.27-.64.4-1,.35-.87.68-1.74,1-2.62.09-.25.18-.5.26-.75.3-.87.58-1.74.83-2.61,0-.16.1-.32.14-.48.27-1,.51-1.91.73-2.85,0-.21.1-.41.14-.61q.31-1.44.54-2.88c0-.2.07-.4.1-.6.14-1,.26-1.94.34-2.9l0-.44c.07-1,.12-2,.12-3a70.29,70.29,0,0,0-.7-10c-1.61-7.17-20.7-28-20.7-28S125.3,93.52,86.72,87.38c-.55-.09-.46,4.52-.47,4.66h0c-.1,1.59-.17,3.23-.17,4.92,0,19.14,11.81,39,24.88,48.2a81.15,81.15,0,0,1-3.71,16.24c-7.27.39-13.34,1.37-26.85,1.37-5.24-12.25-9.41-22.92-14-49.68C56,53.08,80.37,21.45,120.26,31.06Z"/><path class="cls-7" d="M92.65,176.19c14.42,18,45.81,23.58,65.29,0,33.58,5.7,48.2,3.79,48.2,36v28.07H44.46V212.2C44.46,180,59.07,181.89,92.65,176.19Z"/><path class="cls-8" d="M106.14,202.54l19.45-9,19.38,9,13.84-26.83c-2.1-.77-3.84-2.57-5.29-5L125.59,191l-28-20.15c-1.45,2.39-3.19,4.16-5.28,4.9Z"/></g></svg>