<svg width="112" height="53" viewBox="0 0 112 53" fill="none" xmlns="http://www.w3.org/2000/svg">
<path d="M18.3082 14.9072V18.3723H10.878V38.2313H7.41294V18.3723H0V14.9072H18.3098H18.3082Z" fill="#0047BB"/>
<path d="M25.8729 38.0534C24.3409 38.0534 22.9426 37.6586 21.6828 36.8706C20.4213 36.0826 19.4163 35.0241 18.6676 33.6966C17.9173 32.3691 17.543 30.9 17.543 29.2894C17.543 28.0673 17.76 26.9269 18.1926 25.8652C18.6251 24.8051 19.2228 23.8724 19.9841 23.0671C20.7453 22.2618 21.6309 21.6311 22.6406 21.1765C23.6504 20.722 24.7278 20.4939 25.8729 20.4939C27.1501 20.4939 28.3218 20.7581 29.3882 21.285C30.4547 21.812 31.3653 22.5402 32.1203 23.4682C32.8753 24.3962 33.4305 25.4626 33.786 26.6674C34.1415 27.8722 34.2468 29.1525 34.1021 30.5084H21.2565C21.4012 31.2743 21.6812 31.9664 22.098 32.583C22.5148 33.1995 23.048 33.6855 23.6976 34.041C24.3472 34.3965 25.0723 34.5805 25.8713 34.5915C26.7159 34.5915 27.4851 34.3808 28.1787 33.9577C28.8723 33.5361 29.4417 32.9526 29.8868 32.2086L33.4022 33.025C32.7353 34.5019 31.7303 35.7098 30.387 36.6488C29.0438 37.5878 27.5386 38.0566 25.8729 38.0566V38.0534ZM21.1401 27.8565H30.6025C30.4908 27.0575 30.2109 26.3324 29.761 25.6828C29.3112 25.0332 28.7497 24.5157 28.078 24.1335C27.4064 23.7497 26.6703 23.5594 25.8713 23.5594C25.0723 23.5594 24.3519 23.7482 23.6803 24.1257C23.0087 24.5031 22.4535 25.0175 22.0146 25.6671C21.5758 26.3167 21.2848 27.048 21.1401 27.8581V27.8565Z" fill="#0047BB"/>
<path d="M47.7299 32.8881L50.8284 34.5711C50.0734 35.6265 49.1156 36.4695 47.9548 37.1034C46.794 37.7373 45.5357 38.0534 44.1815 38.0534C42.6479 38.0534 41.2512 37.6586 39.9914 36.8706C38.7299 36.0826 37.7248 35.0241 36.9762 33.6966C36.2259 32.3691 35.8516 30.9 35.8516 29.2894C35.8516 28.0673 36.0686 26.9269 36.5012 25.8652C36.9337 24.8051 37.5314 23.8724 38.2927 23.0671C39.0539 22.2618 39.9395 21.6311 40.9492 21.1765C41.959 20.722 43.0364 20.4939 44.1815 20.4939C45.5357 20.4939 46.794 20.81 47.9548 21.4439C49.1156 22.0778 50.0734 22.9271 50.8284 23.9935L47.7299 25.6765C47.2627 25.1213 46.7185 24.6966 46.0972 24.4025C45.476 24.1084 44.8358 23.9605 44.1815 23.9605C43.2708 23.9605 42.4466 24.2074 41.7074 24.7013C40.9681 25.1952 40.3861 25.8448 39.9583 26.6501C39.5305 27.4554 39.3166 28.3362 39.3166 29.2909C39.3166 30.2457 39.5337 31.1092 39.9662 31.9145C40.3987 32.7198 40.9854 33.3663 41.7231 33.8554C42.4623 34.3446 43.2802 34.5884 44.1799 34.5884C44.8688 34.5884 45.5231 34.4327 46.146 34.1212C46.7673 33.8098 47.2958 33.3993 47.7283 32.8881H47.7299Z" fill="#0047BB"/>
<path d="M68.8563 29.519V38.2327H65.3913V29.5866C65.3913 28.6429 65.1946 27.7826 64.7999 27.004C64.4051 26.227 63.8813 25.6104 63.2254 25.1543C62.5695 24.6997 61.8429 24.4717 61.0423 24.4717C60.1756 24.4717 59.4379 24.6997 58.8261 25.1543C58.2158 25.6104 57.7455 26.227 57.4184 27.004C57.0912 27.781 56.9276 28.6429 56.9276 29.5866V38.2327H53.4453V14.874H56.9103V23.5217C57.3775 22.622 57.9909 21.9975 58.7506 21.6468C59.5119 21.2976 60.3864 21.1215 61.3741 21.1215C62.8731 21.1215 64.1786 21.5052 65.289 22.2712C66.3995 23.0372 67.2661 24.0564 67.8874 25.3289C68.5087 26.6013 68.8311 27.998 68.8531 29.519H68.8563Z" fill="#0047BB"/>
<path d="M86.9942 14.8175V28.0044C86.9942 29.2266 86.774 30.3449 86.3367 31.3609C85.8979 32.377 85.2514 33.1886 84.3958 33.7926C83.5402 34.3982 82.4848 34.7001 81.2296 34.7001C79.9745 34.7001 78.9662 34.3982 78.1059 33.7926C77.2455 33.1871 76.5896 32.377 76.1398 31.3609C75.69 30.3449 75.465 29.2266 75.465 28.0044V17.9349L72 19.9828V28.0044C72 29.8809 72.3806 31.589 73.1419 33.1273C73.9032 34.6655 74.9743 35.8908 76.3569 36.8015C77.7394 37.7122 79.3642 38.1683 81.2296 38.1683C82.6295 38.1683 83.8956 37.9072 85.0281 37.385C86.1605 36.8628 87.1326 36.1346 87.9442 35.2019C88.7542 34.2692 89.3771 33.1886 89.8096 31.9618C90.2421 30.7349 90.4592 29.4153 90.4592 28.0044V14.8175H86.9942Z" fill="#0047BB"/>
<path d="M111.2 26.0035C110.744 24.9481 110.118 24.0185 109.317 23.2132C108.518 22.4079 107.587 21.7772 106.527 21.3226C105.467 20.8681 104.33 20.64 103.12 20.64C101.911 20.64 100.922 20.9058 100.055 21.439C99.1882 21.9722 98.4773 22.6659 97.9221 23.5215V20.4607H94.457V44.7033L97.9221 42.6759V35.318C98.4773 36.1626 99.1882 36.8531 100.055 37.3926C100.922 37.9306 101.942 38.2011 103.12 38.2011C104.298 38.2011 105.467 37.973 106.527 37.5185C107.587 37.0639 108.518 36.4332 109.317 35.6279C110.117 34.8226 110.744 33.8867 111.2 32.8203C111.656 31.7539 111.883 30.6151 111.883 29.4056C111.883 28.1961 111.655 27.062 111.2 26.0066V26.0035ZM107.635 32.1518C107.156 32.9744 106.518 33.6256 105.719 34.1101C104.92 34.5929 104.042 34.8351 103.086 34.8351C102.129 34.8351 101.269 34.5914 100.536 34.1022C99.8032 33.613 99.2307 32.9587 98.8202 32.1361C98.4097 31.3151 98.2036 30.4028 98.2036 29.404C98.2036 28.4053 98.4081 27.4961 98.8202 26.6798C99.2307 25.8635 99.8032 25.2108 100.536 24.7232C101.269 24.234 102.118 23.9902 103.086 23.9902C104.053 23.9902 104.935 24.234 105.735 24.7232C106.534 25.2123 107.169 25.8666 107.642 26.6893C108.114 27.5119 108.35 28.4163 108.35 29.4056C108.35 30.3949 108.111 31.3324 107.635 32.155V32.1518Z" fill="#0047BB"/>
<path d="M91.558 0.5L96.6777 3.48845L91.5312 6.38253V6.39669L91.5517 6.38567L111.977 18.3175L111.997 12.3972L91.558 0.5Z" fill="#FF5C00"/>
<path d="M91.5585 0.5L91.5318 0.515725L71.0703 12.3972V18.2734L83.496 10.9014L91.5318 6.38253L96.6782 3.48845L91.5585 0.5Z" fill="#FFC400"/>
<path d="M91.5165 52.7443L95.1939 50.5974L91.4961 48.518V48.5086L91.5103 48.5165L106.185 39.9443L106.199 44.1974L91.5165 52.7443Z" fill="#FF5C00"/>
<path d="M91.5158 52.7443L91.4953 52.7333L76.7969 44.1973V39.9758L85.7229 45.2716L91.4953 48.518L95.1932 50.5974L91.5158 52.7443Z" fill="#FFC400"/>
</svg>
